<?xml version="1.0" standalone="no"?>
<!DOCTYPE svg PUBLIC "-//W3C//DTD SVG 20010904//EN"
 "http://www.w3.org/TR/2001/REC-SVG-20010904/DTD/svg10.dtd">
<svg version="1.0" xmlns="http://www.w3.org/2000/svg"
 width="500.000000pt" height="500.000000pt" viewBox="0 0 500.000000 500.000000"
 preserveAspectRatio="xMidYMid meet">

<g transform="translate(0.000000,500.000000) scale(0.100000,-0.100000)"
fill="#000000" stroke="none">
<path d="M2260 4759 c-303 -33 -562 -109 -823 -241 -304 -154 -553 -350 -775
-613 -208 -246 -390 -600 -471 -918 -60 -232 -66 -288 -66 -592 0 -246 3 -295
23 -400 48 -262 118 -470 233 -696 353 -693 1035 -1172 1812 -1274 151 -19
457 -20 603 -1 546 73 1033 318 1414 712 409 424 644 971 666 1554 33 836
-365 1617 -1061 2082 -136 92 -371 209 -525 263 -132 46 -304 89 -440 110
-125 19 -469 28 -590 14z m479 -144 c467 -52 878 -235 1246 -555 47 -41 85
-77 85 -82 0 -5 -363 -425 -807 -934 l-807 -925 -845 843 -846 843 23 30 c13
17 71 79 130 139 468 475 1151 716 1821 641z m1619 -985 c274 -410 415 -948
372 -1420 -14 -160 -15 -164 -43 -147 -17 9 -248 13 -1021 17 l-999 5 764 877
764 878 43 -48 c24 -26 78 -99 120 -162z m-3076 -1550 c-869 -5 -950 -6 -974
-22 l-26 -17 -12 130 c-17 175 -8 449 19 599 53 293 163 580 310 808 l54 84
789 -789 788 -788 -948 -5z m3368 -304 c0 -32 -86 -259 -140 -370 -112 -229
-243 -411 -434 -602 -427 -425 -979 -654 -1580 -654 -961 0 -1817 616 -2122
1526 -19 56 -34 105 -34 110 0 5 931 8 2155 6 1828 -2 2155 -4 2155 -16z"/>
</g>
</svg>
